<?xml version="1.0" encoding="UTF-8" standalone="no"?>
<!-- Created with Inkscape (http://www.inkscape.org/) -->
<svg xmlns:dc="http://purl.org/dc/elements/1.1/" xmlns:cc="http://creativecommons.org/ns#" xmlns:rdf="http://www.w3.org/1999/02/22-rdf-syntax-ns#" xmlns:svg="http://www.w3.org/2000/svg" xmlns="http://www.w3.org/2000/svg" xmlns:xlink="http://www.w3.org/1999/xlink" xmlns:sodipodi="http://sodipodi.sourceforge.net/DTD/sodipodi-0.dtd" xmlns:inkscape="http://www.inkscape.org/namespaces/inkscape" width="128" height="128" id="svg5697" sodipodi:version="0.32" inkscape:version="0.46" version="1.0" sodipodi:docname="orange.svg" inkscape:output_extension="org.inkscape.output.svg.inkscape" inkscape:export-filename="/home/nathan/Desktop/plum.png" inkscape:export-xdpi="90" inkscape:export-ydpi="90">
  <defs id="defs5699">
    <pattern patternUnits="userSpaceOnUse" width="20.050169" height="20.996854" patternTransform="matrix(0.6528718,0.7574684,-0.7574684,0.6528718,71.375789,185.74299)" id="pattern9151">
      <rect ry="0" rx="0" y="-1.2017703e-06" x="-3.3493916e-06" height="20.996855" width="20.050169" id="rect9149" style="fill:#ffd400;fill-opacity:1;stroke:none;stroke-width:6.87900019;stroke-linecap:round;stroke-linejoin:round;stroke-miterlimit:4;stroke-dasharray:none;stroke-opacity:1"/>
      <path transform="matrix(0.9873554,-0.158522,0.158522,0.9873554,-207.43306,-94.091239)" sodipodi:type="star" style="fill:#b9d400;fill-opacity:1;stroke:none;stroke-width:6.87900019;stroke-linecap:round;stroke-linejoin:round;stroke-miterlimit:4;stroke-dasharray:none;stroke-opacity:1" id="path9608" sodipodi:sides="5" sodipodi:cx="198.9711" sodipodi:cy="138.05605" sodipodi:r1="10.608961" sodipodi:r2="8.5828295" sodipodi:arg1="0.8419416" sodipodi:arg2="1.4702601" inkscape:flatsided="true" inkscape:rounded="0" inkscape:randomized="0" d="M 206.03684,145.96967 L 193.62823,147.2214 L 188.60329,135.80692 L 197.90631,127.50065 L 208.68084,133.78158 L 206.03684,145.96967 z"/>
    </pattern>
    <radialGradient inkscape:collect="always" xlink:href="#linearGradient5220" id="radialGradient5635" cx="192.95435" cy="98.657715" fx="192.95435" fy="98.657715" r="0.177645" gradientTransform="matrix(1,0,0,1.5711419,-59.070033,-1.8213685)" gradientUnits="userSpaceOnUse"/>
    <linearGradient id="linearGradient5220">
      <stop style="stop-color:#2dbb00;stop-opacity:1;" offset="0" id="stop5222"/>
      <stop style="stop-color:#00d400;stop-opacity:0;" offset="1" id="stop5224"/>
    </linearGradient>
    <radialGradient inkscape:collect="always" xlink:href="#linearGradient5220" id="radialGradient5637" cx="193.81297" cy="100.845" fx="193.81297" fy="100.845" r="0.68097502" gradientTransform="matrix(1,0,0,2.8021293,-59.070033,-127.20955)" gradientUnits="userSpaceOnUse"/>
    <inkscape:perspective sodipodi:type="inkscape:persp3d" inkscape:vp_x="0 : 526.18109 : 1" inkscape:vp_y="0 : 1000 : 0" inkscape:vp_z="744.09448 : 526.18109 : 1" inkscape:persp3d-origin="372.04724 : 350.78739 : 1" id="perspective5705"/>
    <radialGradient inkscape:collect="always" xlink:href="#linearGradient5220" id="radialGradient9619" gradientUnits="userSpaceOnUse" gradientTransform="matrix(1,0,0,2.8021293,-59.070033,-127.20955)" cx="193.81297" cy="100.845" fx="193.81297" fy="100.845" r="0.68097502"/>
    <radialGradient inkscape:collect="always" xlink:href="#linearGradient5220" id="radialGradient9621" gradientUnits="userSpaceOnUse" gradientTransform="matrix(1,0,0,1.5711419,-59.070033,-1.8213685)" cx="192.95435" cy="98.657715" fx="192.95435" fy="98.657715" r="0.177645"/>
  </defs>
  <sodipodi:namedview id="base" pagecolor="#ffffff" bordercolor="#666666" borderopacity="1.0" gridtolerance="10000" guidetolerance="10" objecttolerance="10" inkscape:pageopacity="0.0" inkscape:pageshadow="2" inkscape:zoom="0.99096957" inkscape:cx="-6.4701639" inkscape:cy="53.056027" inkscape:document-units="px" inkscape:current-layer="g3635" showgrid="false" width="128px" inkscape:window-width="951" inkscape:window-height="719" inkscape:window-x="50" inkscape:window-y="40"/>
  <metadata id="metadata5702">
    <rdf:RDF>
      <cc:Work rdf:about="">
        <dc:format>image/svg+xml</dc:format>
        <dc:type rdf:resource="http://purl.org/dc/dcmitype/StillImage"/>
        <cc:license rdf:resource="http://creativecommons.org/licenses/publicdomain/"/>
        <dc:title>Orange</dc:title>
        <dc:creator>
          <cc:Agent>
            <dc:title>chovynz</dc:title>
          </cc:Agent>
        </dc:creator>
        <dc:subject>
          <rdf:Bag>
            <rdf:li>orange</rdf:li>
            <rdf:li>icon</rdf:li>
            <rdf:li>fruit</rdf:li>
            <rdf:li>food</rdf:li>
          </rdf:Bag>
        </dc:subject>
      </cc:Work>
      <cc:License rdf:about="http://creativecommons.org/licenses/publicdomain/">
        <cc:permits rdf:resource="http://creativecommons.org/ns#Reproduction"/>
        <cc:permits rdf:resource="http://creativecommons.org/ns#Distribution"/>
        <cc:permits rdf:resource="http://creativecommons.org/ns#DerivativeWorks"/>
      </cc:License>
    </rdf:RDF>
  </metadata>
  <g inkscape:label="Layer 1" inkscape:groupmode="layer" id="layer1" transform="translate(-11.704062,0.7319783)">
    <g style="display:inline" id="g3635" transform="matrix(1.0776677,0,0,0.9338009,-214.84682,-177.08134)" inkscape:transform-center-x="-53.542601" inkscape:transform-center-y="63.866729">
      <g style="display:inline" id="g5863" transform="matrix(0.9279298,0,0,1.0708921,-62.772903,-157.03488)">
        <path sodipodi:open="true" sodipodi:end="5.7625027" sodipodi:start="0" transform="translate(-321.35735,92.731603)" d="M 670.71103,115.58394 A 56.53928,45.453144 0 1 1 663.21844,92.972254" sodipodi:ry="45.453144" sodipodi:rx="56.53928" sodipodi:cy="115.58394" sodipodi:cx="614.17175" id="path3683" style="fill:#804291;fill-opacity:1;stroke:#000000;stroke-width:6.87900019;stroke-linecap:round;stroke-linejoin:round;stroke-miterlimit:4;stroke-dasharray:none;stroke-opacity:1;display:inline" sodipodi:type="arc"/>
        <path id="path3689" d="M 341.77713,185.24372 C 343.05861,186.26611 344.29422,187.25404 344.79889,189.27274 C 345.25433,191.0945 345.05346,192.12112 344.46314,193.30175 C 343.9528,194.32242 342.44656,194.98258 341.77713,195.65201 C 341.08544,196.34371 337.45166,196.11421 336.40511,196.32352 C 334.2525,196.75404 333.10264,197.47112 331.36883,198.33803 C 330.05647,198.99421 329.35432,199.64448 329.35432,201.35979 C 329.35432,203.6963 329.55632,204.65042 331.70458,205.72456 C 333.33237,206.53845 334.40466,206.73181 336.40511,206.73181 C 338.72246,206.73181 338.99458,205.82109 340.09837,204.7173 C 341.16262,203.65305 342.11288,203.18009 342.11288,201.02404 C 342.11288,199.54975 343.17812,198.44184 343.45589,197.33077 C 344.03601,195.01029 346.29603,196.47765 346.8134,196.99502 C 348.27424,198.45586 348.15641,199.98467 348.15641,202.03129 C 348.15641,203.57188 349.08598,204.56194 349.83516,206.06031 C 350.25651,206.903 349.60305,208.33176 349.49941,208.74632" style="fill:none;fill-rule:evenodd;stroke:#000000;stroke-width:6.87900019;stroke-linecap:butt;stroke-linejoin:miter;stroke-miterlimit:4;stroke-dasharray:none;stroke-opacity:1;display:inline"/>
        <path sodipodi:nodetypes="csssz" id="path3691" d="M 287.877,177.54484 C 291.09028,182.37079 282.81579,177.84571 266.8849,189.57655 C 248.79634,202.90075 250.20182,214.37987 246.64931,209.86613 C 243.08161,205.33311 250.12352,191.27461 260.55945,183.41237 C 270.99537,175.55015 284.67994,172.74324 287.877,177.54484 z" style="fill:#ffffff;fill-opacity:1;stroke:none;stroke-width:6.87900019;stroke-linecap:round;stroke-linejoin:round;stroke-miterlimit:4;stroke-opacity:1;display:inline"/>
      </g>
      <g style="display:inline" id="g5874" transform="matrix(0.9279298,0,0,1.0708921,219.07922,54.772685)">
        <g transform="matrix(1.1585446,0,0,1.185822,153.82071,22.508299)" id="g7726" style="display:inline">
          <path style="fill:#af794b;fill-opacity:1;fill-rule:evenodd;stroke:#000000;stroke-width:5.8689332;stroke-linecap:butt;stroke-linejoin:round;stroke-miterlimit:4;stroke-dasharray:none;stroke-opacity:1" d="M 257.70631,194.50015 C 251.60007,198.29062 246.95776,202.54437 241.84986,196.51556 C 236.74197,190.48676 231.29191,200.55442 227.23428,202.03605 C 223.17666,203.51769 215.04458,194.52971 213.52582,202.29265 C 212.00706,210.0556 218.68943,213.63904 224.95781,217.05885 C 231.2262,220.47866 243.47102,206.93173 241.39419,227.62707 C 239.31737,248.3224 202.47682,242.17195 203.39967,277.28463 C 204.33995,313.06042 223.15795,323.39706 248.7606,324.43881 C 275.03672,325.50796 297.15663,313.39499 297.19915,281.10531 C 297.24255,248.14103 268.32555,243.34603 259.24516,228.93513 C 250.16477,214.52424 260.12115,220.26369 267.51193,216.66425 C 274.90271,213.06482 277.97758,215.61576 282.32578,209.31674 C 286.67399,203.01773 277.05443,201.05515 270.53477,203.94536 C 264.01512,206.83557 263.81256,190.70969 257.70631,194.50015 z" id="path7728" sodipodi:nodetypes="czzzzzzzzzzzzz"/>
          <path style="fill:none;fill-rule:evenodd;stroke:#000000;stroke-width:4.89120436;stroke-linecap:round;stroke-linejoin:round;stroke-miterlimit:4;stroke-dasharray:none;stroke-opacity:1" d="M 267.47291,268.90985 C 255.21114,251.77882 204.28485,269.84006 251.90616,280.76509 C 299.52748,291.69012 245.89314,315.86404 232.62936,288.90618" id="path7730" sodipodi:nodetypes="czc"/>
          <path id="path7732" d="M 246.47439,253.93154 L 246.47439,305.44951" style="fill:none;fill-rule:evenodd;stroke:#000000;stroke-width:4.89120436;stroke-linecap:round;stroke-linejoin:miter;stroke-miterlimit:4;stroke-dasharray:none;stroke-opacity:1"/>
          <path sodipodi:nodetypes="ccc" style="fill:none;fill-rule:evenodd;stroke:#000000;stroke-width:4.89120436;stroke-linecap:round;stroke-linejoin:miter;stroke-miterlimit:4;stroke-dasharray:none;stroke-opacity:1" d="M 256.28074,255.02113 L 256.28074,277.59707 L 256.28074,306.5391" id="path7734"/>
        </g>
      </g>
      <g style="display:inline" id="g5881" transform="matrix(0.9279298,0,0,1.0708921,219.07922,54.772685)">
        <path style="fill:#008000;fill-opacity:1;fill-rule:evenodd;stroke:#000000;stroke-width:6.87909317;stroke-linecap:butt;stroke-linejoin:round;marker:none;stroke-miterlimit:4;stroke-dasharray:none;stroke-dashoffset:0;stroke-opacity:1;visibility:visible;display:inline;overflow:visible" d="M 239.46928,324.02355 C 239.45461,324.60133 239.43077,325.17717 239.43077,325.75858 C 239.43077,361.24083 266.90778,390.0352 300.7667,390.03519 C 334.62563,390.03519 362.10262,361.24083 362.10262,325.75858 L 362.10262,324.79019 C 362.09894,324.5325 362.07069,324.28054 362.06412,324.02355 L 239.46928,324.02355 z" id="path3463"/>
        <path style="fill:#ff0000;fill-opacity:1;fill-rule:evenodd;stroke:none;stroke-width:4.18600988;stroke-linecap:butt;stroke-linejoin:miter;marker:none;stroke-miterlimit:4;stroke-dashoffset:0;stroke-opacity:1;visibility:visible;display:inline;overflow:visible" d="M 250.85983,327.62912 C 250.8479,328.07338 250.82852,328.51619 250.82852,328.96329 C 250.82852,356.24775 273.17537,378.38949 300.71255,378.38949 C 328.24976,378.38949 350.5966,356.24775 350.5966,328.96329 L 350.5966,328.21864 C 350.59361,328.02044 350.57062,327.82672 350.56528,327.62912 L 250.85983,327.62912 z" id="path3461"/>
        <path sodipodi:nodetypes="cc" id="path2453" d="M 294.10293,353.07502 C 294.07701,355.28844 294.00976,355.34018 293.96746,357.14382" style="fill:none;fill-rule:evenodd;stroke:#000000;stroke-width:5.73257732;stroke-linecap:round;stroke-linejoin:miter;stroke-miterlimit:4;stroke-dasharray:none;stroke-opacity:1;display:inline"/>
        <path sodipodi:nodetypes="cc" id="path3227" d="M 274.52697,340.70904 C 272.63755,341.83086 272.55893,341.79948 271.00835,342.69531" style="fill:none;fill-rule:evenodd;stroke:#000000;stroke-width:5.73257732;stroke-linecap:round;stroke-linejoin:miter;stroke-miterlimit:4;stroke-dasharray:none;stroke-opacity:1;display:inline"/>
        <path inkscape:transform-center-y="-1.4248608" inkscape:transform-center-x="0.94990722" style="fill:none;fill-rule:evenodd;stroke:#000000;stroke-width:5.73257732;stroke-linecap:round;stroke-linejoin:miter;stroke-miterlimit:4;stroke-dasharray:none;stroke-opacity:1;display:inline" d="M 271.3421,350.94121 C 269.68232,352.38686 269.59942,352.37021 268.2329,353.5322" id="path3229" sodipodi:nodetypes="cc"/>
        <path sodipodi:nodetypes="cc" id="path3231" d="M 285.14791,360.51222 C 284.62463,362.66178 284.54751,362.69672 284.10048,364.44349" style="fill:none;fill-rule:evenodd;stroke:#000000;stroke-width:5.73257732;stroke-linecap:round;stroke-linejoin:miter;stroke-miterlimit:4;stroke-dasharray:none;stroke-opacity:1;display:inline" inkscape:transform-center-x="2.95906" inkscape:transform-center-y="-0.84830761"/>
        <path inkscape:transform-center-y="-0.14443761" inkscape:transform-center-x="3.07487" style="fill:none;fill-rule:evenodd;stroke:#000000;stroke-width:5.73257732;stroke-linecap:round;stroke-linejoin:miter;stroke-miterlimit:4;stroke-dasharray:none;stroke-opacity:1;display:inline" d="M 300.80923,362.62237 C 300.78989,364.83585 300.7228,364.8878 300.68586,366.69159" id="path3233" sodipodi:nodetypes="cc"/>
        <path sodipodi:nodetypes="cc" id="path3235" d="M 316.16268,359.99736 C 317.30064,361.88918 317.27071,361.96903 318.18004,363.52196" style="fill:none;fill-rule:evenodd;stroke:#000000;stroke-width:5.73257732;stroke-linecap:round;stroke-linejoin:miter;stroke-miterlimit:4;stroke-dasharray:none;stroke-opacity:1;display:inline" inkscape:transform-center-x="2.68982" inkscape:transform-center-y="1.4968474"/>
        <path inkscape:transform-center-y="2.1698174" inkscape:transform-center-x="2.18348" style="fill:none;fill-rule:evenodd;stroke:#000000;stroke-width:5.73257732;stroke-linecap:round;stroke-linejoin:miter;stroke-miterlimit:4;stroke-dasharray:none;stroke-opacity:1;display:inline" d="M 330.25779,350.85392 C 331.86081,352.36345 331.85343,352.44851 333.14545,353.69442" id="path3237" sodipodi:nodetypes="cc"/>
        <path sodipodi:nodetypes="cc" id="path3239" d="M 324.87467,340.6991 C 326.96613,341.36098 326.99586,341.44091 328.69405,342.00076" style="fill:none;fill-rule:evenodd;stroke:#000000;stroke-width:5.73257732;stroke-linecap:round;stroke-linejoin:miter;stroke-miterlimit:4;stroke-dasharray:none;stroke-opacity:1;display:inline" inkscape:transform-center-x="1.031695" inkscape:transform-center-y="2.9002274"/>
        <path inkscape:transform-center-y="2.1285574" inkscape:transform-center-x="2.22373" style="fill:none;fill-rule:evenodd;stroke:#000000;stroke-width:5.73257732;stroke-linecap:round;stroke-linejoin:miter;stroke-miterlimit:4;stroke-dasharray:none;stroke-opacity:1;display:inline" d="M 318.18231,349.13759 C 319.75707,350.67717 319.74811,350.76207 321.01681,352.0322" id="path3241" sodipodi:nodetypes="cc"/>
        <path sodipodi:nodetypes="cc" id="path3243" d="M 306.82828,352.50482 C 307.4438,354.62929 307.39446,354.69863 307.87577,356.43609" style="fill:none;fill-rule:evenodd;stroke:#000000;stroke-width:5.73257732;stroke-linecap:round;stroke-linejoin:miter;stroke-miterlimit:4;stroke-dasharray:none;stroke-opacity:1;display:inline" inkscape:transform-center-x="2.985185" inkscape:transform-center-y="0.7512824"/>
      </g>
      <g style="display:inline" id="g5895" transform="matrix(0.9233606,0,0,1.0766984,-64.251154,-278.26041)">
        <path sodipodi:nodetypes="czcsssczc" id="path3645" d="M 149.84873,285.51017 C 129.79148,285.51017 112.64603,305.03106 111.25498,326.44767 C 109.86544,347.84111 110.72003,355.02808 95.786234,373.85391 C 91.938484,376.42678 89.786234,379.30811 89.786234,382.35391 C 89.786234,393.18343 117.06601,401.9789 150.66123,401.97891 C 184.25647,401.97891 211.50499,393.18345 211.50498,382.35391 C 211.50498,379.31794 209.36065,376.45173 205.53624,373.88516 C 190.17437,349.27898 194.64463,352.32682 188.41123,325.63516 C 182.17783,298.9435 169.66814,285.51015 149.84873,285.51017 z" style="fill:#ffd400;fill-opacity:1;stroke:#000000;stroke-width:6.87900019;stroke-linecap:round;stroke-linejoin:round;stroke-miterlimit:4;stroke-dasharray:none;stroke-opacity:1;display:inline"/>
        <path transform="matrix(0.8060605,0,0,0.6734695,-67.842214,165.81834)" d="M 335.51262,321.36798 A 64.672409,19.205746 0 1 1 206.1678,321.36798 A 64.672409,19.205746 0 1 1 335.51262,321.36798 z" sodipodi:ry="19.205746" sodipodi:rx="64.672409" sodipodi:cy="321.36798" sodipodi:cx="270.84021" id="path3668" style="fill:#ffa000;fill-opacity:1;stroke:none;stroke-width:6.87900019;stroke-linecap:round;stroke-linejoin:round;stroke-miterlimit:4;stroke-dasharray:none;stroke-opacity:1;display:inline" sodipodi:type="arc"/>
        <path transform="translate(-114.88146,63.233582)" d="M 285.34249,316.66455 A 10.582758,8.2310343 0 1 1 264.17698,316.66455 A 10.582758,8.2310343 0 1 1 285.34249,316.66455 z" sodipodi:ry="8.2310343" sodipodi:rx="10.582758" sodipodi:cy="316.66455" sodipodi:cx="274.75974" id="path3671" style="fill:#ffd400;fill-opacity:1;stroke:none;stroke-width:6.87900019;stroke-linecap:round;stroke-linejoin:round;stroke-miterlimit:4;stroke-dasharray:none;stroke-opacity:1;display:inline" sodipodi:type="arc"/>
        <path style="fill:#ffffff;fill-opacity:1;stroke:none;stroke-width:6.87900019;stroke-linecap:round;stroke-linejoin:round;stroke-miterlimit:4;stroke-opacity:1;display:inline" d="M 153.07832,298.60846 C 157.02813,303.18997 148.68867,298.98162 137.37131,310.51327 C 124.52216,323.61114 128.42131,334.61265 124.24497,330.3366 C 120.05077,326.04232 122.99663,312.42297 130.36918,304.69825 C 137.74173,296.97354 149.14843,294.05005 153.07832,298.60846 z" id="path3694" sodipodi:nodetypes="csssz"/>
      </g>
      <g style="display:inline" id="g5868" transform="matrix(0.7700796,0,0,0.9090596,-83.158783,107.61894)">
        <path transform="matrix(1.0426817,0,0,1.0831169,18.687496,-16.904964)" d="M 443.21592,191.56537 A 46.210487,42.500156 0 1 1 350.79494,191.56537 A 46.210487,42.500156 0 1 1 443.21592,191.56537 z" sodipodi:ry="42.500156" sodipodi:rx="46.210487" sodipodi:cy="191.56537" sodipodi:cx="397.00543" id="path3584" style="fill:#ff7800;fill-opacity:1;stroke:#000000;stroke-width:6.4730916;stroke-linecap:round;stroke-linejoin:round;stroke-miterlimit:4;stroke-dasharray:none;stroke-opacity:1;display:inline" sodipodi:type="arc"/>
        <path sodipodi:nodetypes="czczc" id="path3660" d="M 452.22712,169.29343 C 452.38321,169.38193 472.58093,160.7066 482.97483,163.23538 C 493.36869,165.76416 515.97403,154.13809 532.28746,137.87894 C 507.5167,134.38235 481.6757,137.00608 470.28851,144.98975 C 458.9013,152.97341 452.22712,169.29343 452.22712,169.29343 z" style="fill:#008000;fill-opacity:1;fill-rule:evenodd;stroke:#000000;stroke-width:5.73300028;stroke-linecap:butt;stroke-linejoin:round;marker:none;stroke-miterlimit:4;stroke-dasharray:none;stroke-dashoffset:0;stroke-opacity:1;visibility:visible;display:inline;overflow:visible"/>
        <path inkscape:transform-center-y="-41.513808" inkscape:transform-center-x="20.10941" sodipodi:nodetypes="czczc" id="path3681" d="M 454.25109,167.15286 C 454.0742,167.12271 443.91214,147.63063 434.26085,143.01758 C 424.60956,138.40455 414.44807,115.10411 412.09053,92.192749 C 433.49181,105.14661 451.85228,123.51871 455.626,136.90401 C 459.39975,150.2893 454.25109,167.15286 454.25109,167.15286 z" style="fill:#008000;fill-opacity:1;fill-rule:evenodd;stroke:#000000;stroke-width:5.73300028;stroke-linecap:butt;stroke-linejoin:round;marker:none;stroke-miterlimit:4;stroke-dasharray:none;stroke-dashoffset:0;stroke-opacity:1;visibility:visible;display:inline;overflow:visible"/>
        <path sodipodi:nodetypes="csssz" id="path3750" d="M 430.55934,156.18854 C 435.06084,160.77005 425.55659,156.5617 412.65849,168.09335 C 398.01466,181.19123 402.45842,192.19273 397.69875,187.91668 C 392.91874,183.62239 396.27606,170.00305 404.67836,162.27833 C 413.08065,154.55362 426.08056,151.63013 430.55934,156.18854 z" style="fill:#ffffff;fill-opacity:1;stroke:none;stroke-width:6.87900019;stroke-linecap:round;stroke-linejoin:round;stroke-miterlimit:4;stroke-opacity:1;display:inline"/>
      </g>
      <g style="display:inline" id="g5839" transform="matrix(0.5607509,-0.5513776,0.4558899,0.6509164,-111.65486,228.91036)">
        <path sodipodi:nodetypes="cscsccccccccc" id="path5675" d="M 123.96396,177.59239 C 123.96396,177.59239 129.01268,173.55341 126.48832,159.41699 C 123.96396,145.28057 113.36165,133.16364 110.33242,129.12466 C 107.30318,125.08569 134.56627,136.69775 138.10038,147.30006 C 141.63448,157.90238 130.5273,116.50287 122.95422,108.42492 C 115.38114,100.34696 146.17832,117.00774 149.71243,132.1539 C 152.23679,114.48338 146.98846,108.74184 162.33423,94.79337 C 158.99974,124.76877 161.32448,140.23185 161.32448,140.23185 C 165.86833,140.73672 178.49014,119.02723 185.05348,108.92979 C 193.15054,96.472768 178.99502,149.82441 168.89758,157.90237 C 168.89758,157.90237 201.20939,154.36827 197.67528,154.36827 C 164.85859,174.05828 177.48039,181.63136 177.48039,181.63136 L 123.96396,177.59239 z" style="fill:#007700;fill-opacity:1;fill-rule:evenodd;stroke:#000000;stroke-width:7.21056366;stroke-linecap:butt;stroke-linejoin:round;stroke-miterlimit:4;stroke-dasharray:none;stroke-opacity:1"/>
        <path sodipodi:nodetypes="czzzz" id="path3752" d="M 148.706,258.14096 C 184.93829,261.98366 188.74361,245.93712 191.23546,223.61478 C 193.72731,201.29245 194.83863,155.08151 154.53168,150.49706 C 114.10292,145.89874 106.09261,185.45923 105.3185,212.91106 C 104.57973,239.10952 111.23308,254.16668 148.706,258.14096 z" style="fill:#ffd400;fill-opacity:1;stroke:#000000;stroke-width:8.65192223;stroke-linecap:round;stroke-linejoin:round;stroke-miterlimit:4;stroke-dasharray:none;stroke-opacity:1;display:inline"/>
        <path transform="matrix(0.764692,0.644396,-0.644396,0.764692,75.842367,-14.9141)" sodipodi:type="star" style="fill:#b9d400;fill-opacity:1;stroke:none;stroke-width:6.87900019;stroke-linecap:round;stroke-linejoin:round;stroke-miterlimit:4;stroke-dasharray:none;stroke-opacity:1" id="path5276" sodipodi:sides="5" sodipodi:cx="198.9711" sodipodi:cy="138.05605" sodipodi:r1="10.608961" sodipodi:r2="8.5828295" sodipodi:arg1="0.8419416" sodipodi:arg2="1.4702601" inkscape:flatsided="true" inkscape:rounded="0" inkscape:randomized="0" d="M 206.03684,145.96967 L 193.62823,147.2214 L 188.60329,135.80692 L 197.90631,127.50065 L 208.68084,133.78158 L 206.03684,145.96967 z"/>
        <path d="M 206.03684,145.96967 L 193.62823,147.2214 L 188.60329,135.80692 L 197.90631,127.50065 L 208.68084,133.78158 L 206.03684,145.96967 z" inkscape:randomized="0" inkscape:rounded="0" inkscape:flatsided="true" sodipodi:arg2="1.4702601" sodipodi:arg1="0.8419416" sodipodi:r2="8.5828295" sodipodi:r1="10.608961" sodipodi:cy="138.05605" sodipodi:cx="198.9711" sodipodi:sides="5" id="path5280" style="fill:#b9d400;fill-opacity:1;stroke:none;stroke-width:6.87900019;stroke-linecap:round;stroke-linejoin:round;stroke-miterlimit:4;stroke-dasharray:none;stroke-opacity:1" sodipodi:type="star" transform="matrix(0.764692,0.644396,-0.644396,0.764692,88.843317,0.9131475)"/>
        <path transform="matrix(0.764692,0.644396,-0.644396,0.764692,95.909047,-20.849314)" sodipodi:type="star" style="fill:#b9d400;fill-opacity:1;stroke:none;stroke-width:6.87900019;stroke-linecap:round;stroke-linejoin:round;stroke-miterlimit:4;stroke-dasharray:none;stroke-opacity:1" id="path5284" sodipodi:sides="5" sodipodi:cx="198.9711" sodipodi:cy="138.05605" sodipodi:r1="10.608961" sodipodi:r2="8.5828295" sodipodi:arg1="0.8419416" sodipodi:arg2="1.4702601" inkscape:flatsided="true" inkscape:rounded="0" inkscape:randomized="0" d="M 206.03684,145.96967 L 193.62823,147.2214 L 188.60329,135.80692 L 197.90631,127.50065 L 208.68084,133.78158 L 206.03684,145.96967 z"/>
        <path transform="matrix(0.764692,0.644396,-0.644396,0.764692,59.732487,-30.176084)" sodipodi:type="star" style="fill:#b9d400;fill-opacity:1;stroke:none;stroke-width:6.87900019;stroke-linecap:round;stroke-linejoin:round;stroke-miterlimit:4;stroke-dasharray:none;stroke-opacity:1" id="path5292" sodipodi:sides="5" sodipodi:cx="198.9711" sodipodi:cy="138.05605" sodipodi:r1="10.608961" sodipodi:r2="8.5828295" sodipodi:arg1="0.8419416" sodipodi:arg2="1.4702601" inkscape:flatsided="true" inkscape:rounded="0" inkscape:randomized="0" d="M 206.03684,145.96967 L 193.62823,147.2214 L 188.60329,135.80692 L 197.90631,127.50065 L 208.68084,133.78158 L 206.03684,145.96967 z"/>
        <path d="M 206.03684,145.96967 L 193.62823,147.2214 L 188.60329,135.80692 L 197.90631,127.50065 L 208.68084,133.78158 L 206.03684,145.96967 z" inkscape:randomized="0" inkscape:rounded="0" inkscape:flatsided="true" sodipodi:arg2="1.4702601" sodipodi:arg1="0.8419416" sodipodi:r2="8.5828295" sodipodi:r1="10.608961" sodipodi:cy="138.05605" sodipodi:cx="198.9711" sodipodi:sides="5" id="path5296" style="fill:#b9d400;fill-opacity:1;stroke:none;stroke-width:6.87900019;stroke-linecap:round;stroke-linejoin:round;stroke-miterlimit:4;stroke-dasharray:none;stroke-opacity:1" sodipodi:type="star" transform="matrix(0.764692,0.644396,-0.644396,0.764692,56.340937,-8.9788775)"/>
        <path transform="matrix(0.764692,0.644396,-0.644396,0.764692,69.907147,6.2831105)" sodipodi:type="star" style="fill:#b9d400;fill-opacity:1;stroke:none;stroke-width:6.87900019;stroke-linecap:round;stroke-linejoin:round;stroke-miterlimit:4;stroke-dasharray:none;stroke-opacity:1" id="path5300" sodipodi:sides="5" sodipodi:cx="198.9711" sodipodi:cy="138.05605" sodipodi:r1="10.608961" sodipodi:r2="8.5828295" sodipodi:arg1="0.8419416" sodipodi:arg2="1.4702601" inkscape:flatsided="true" inkscape:rounded="0" inkscape:randomized="0" d="M 206.03684,145.96967 L 193.62823,147.2214 L 188.60329,135.80692 L 197.90631,127.50065 L 208.68084,133.78158 L 206.03684,145.96967 z"/>
        <path d="M 206.03684,145.96967 L 193.62823,147.2214 L 188.60329,135.80692 L 197.90631,127.50065 L 208.68084,133.78158 L 206.03684,145.96967 z" inkscape:randomized="0" inkscape:rounded="0" inkscape:flatsided="true" sodipodi:arg2="1.4702601" sodipodi:arg1="0.8419416" sodipodi:r2="8.5828295" sodipodi:r1="10.608961" sodipodi:cy="138.05605" sodipodi:cx="198.9711" sodipodi:sides="5" id="path5314" style="fill:#b9d400;fill-opacity:1;stroke:none;stroke-width:6.87900019;stroke-linecap:round;stroke-linejoin:round;stroke-miterlimit:4;stroke-dasharray:none;stroke-opacity:1" sodipodi:type="star" transform="matrix(0.764692,0.644396,-0.644396,0.764692,80.081807,-37.241819)"/>
        <path d="M 206.03684,145.96967 L 193.62823,147.2214 L 188.60329,135.80692 L 197.90631,127.50065 L 208.68084,133.78158 L 206.03684,145.96967 z" inkscape:randomized="0" inkscape:rounded="0" inkscape:flatsided="true" sodipodi:arg2="1.4702601" sodipodi:arg1="0.8419416" sodipodi:r2="8.5828295" sodipodi:r1="10.608961" sodipodi:cy="138.05605" sodipodi:cx="198.9711" sodipodi:sides="5" id="path5422" style="fill:#b9d400;fill-opacity:1;stroke:none;stroke-width:6.87900019;stroke-linecap:round;stroke-linejoin:round;stroke-miterlimit:4;stroke-dasharray:none;stroke-opacity:1" sodipodi:type="star" transform="matrix(0.764692,0.644396,-0.644396,0.764692,63.515027,-50.141836)"/>
        <path d="M 206.03684,145.96967 L 193.62823,147.2214 L 188.60329,135.80692 L 197.90631,127.50065 L 208.68084,133.78158 L 206.03684,145.96967 z" inkscape:randomized="0" inkscape:rounded="0" inkscape:flatsided="true" sodipodi:arg2="1.4702601" sodipodi:arg1="0.8419416" sodipodi:r2="8.5828295" sodipodi:r1="10.608961" sodipodi:cy="138.05605" sodipodi:cx="198.9711" sodipodi:sides="5" id="path5322" style="fill:#b9d400;fill-opacity:1;stroke:none;stroke-width:6.87900019;stroke-linecap:round;stroke-linejoin:round;stroke-miterlimit:4;stroke-dasharray:none;stroke-opacity:1" sodipodi:type="star" transform="matrix(0.764692,0.644396,-0.644396,0.764692,83.250217,-58.647286)"/>
        <path transform="matrix(0.764692,0.644396,-0.644396,0.764692,99.865857,-43.742298)" sodipodi:type="star" style="fill:#b9d400;fill-opacity:1;stroke:none;stroke-width:6.87900019;stroke-linecap:round;stroke-linejoin:round;stroke-miterlimit:4;stroke-dasharray:none;stroke-opacity:1" id="path5326" sodipodi:sides="5" sodipodi:cx="198.9711" sodipodi:cy="138.05605" sodipodi:r1="10.608961" sodipodi:r2="8.5828295" sodipodi:arg1="0.8419416" sodipodi:arg2="1.4702601" inkscape:flatsided="true" inkscape:rounded="0" inkscape:randomized="0" d="M 206.03684,145.96967 L 193.62823,147.2214 L 188.60329,135.80692 L 197.90631,127.50065 L 208.68084,133.78158 L 206.03684,145.96967 z"/>
        <path d="M 206.03684,145.96967 L 193.62823,147.2214 L 188.60329,135.80692 L 197.90631,127.50065 L 208.68084,133.78158 L 206.03684,145.96967 z" inkscape:randomized="0" inkscape:rounded="0" inkscape:flatsided="true" sodipodi:arg2="1.4702601" sodipodi:arg1="0.8419416" sodipodi:r2="8.5828295" sodipodi:r1="10.608961" sodipodi:cy="138.05605" sodipodi:cx="198.9711" sodipodi:sides="5" id="path5330" style="fill:#b9d400;fill-opacity:1;stroke:none;stroke-width:6.87900019;stroke-linecap:round;stroke-linejoin:round;stroke-miterlimit:4;stroke-dasharray:none;stroke-opacity:1" sodipodi:type="star" transform="matrix(0.764692,0.644396,-0.644396,0.764692,101.84427,-64.091616)"/>
        <path transform="matrix(0.764692,0.644396,-0.644396,0.764692,114.27996,-29.045569)" sodipodi:type="star" style="fill:#b9d400;fill-opacity:1;stroke:none;stroke-width:6.87900019;stroke-linecap:round;stroke-linejoin:round;stroke-miterlimit:4;stroke-dasharray:none;stroke-opacity:1" id="path5334" sodipodi:sides="5" sodipodi:cx="198.9711" sodipodi:cy="138.05605" sodipodi:r1="10.608961" sodipodi:r2="8.5828295" sodipodi:arg1="0.8419416" sodipodi:arg2="1.4702601" inkscape:flatsided="true" inkscape:rounded="0" inkscape:randomized="0" d="M 206.03684,145.96967 L 193.62823,147.2214 L 188.60329,135.80692 L 197.90631,127.50065 L 208.68084,133.78158 L 206.03684,145.96967 z"/>
        <path d="M 206.03684,145.96967 L 193.62823,147.2214 L 188.60329,135.80692 L 197.90631,127.50065 L 208.68084,133.78158 L 206.03684,145.96967 z" inkscape:randomized="0" inkscape:rounded="0" inkscape:flatsided="true" sodipodi:arg2="1.4702601" sodipodi:arg1="0.8419416" sodipodi:r2="8.5828295" sodipodi:r1="10.608961" sodipodi:cy="138.05605" sodipodi:cx="198.9711" sodipodi:sides="5" id="path5338" style="fill:#b9d400;fill-opacity:1;stroke:none;stroke-width:6.87900019;stroke-linecap:round;stroke-linejoin:round;stroke-miterlimit:4;stroke-dasharray:none;stroke-opacity:1" sodipodi:type="star" transform="matrix(0.764692,0.644396,-0.644396,0.764692,112.01892,-5.0220685)"/>
        <path sodipodi:nodetypes="cccccc" id="path5342" d="M 177.08999,249.44332 C 177.08999,249.44332 167.45847,254.08015 159.57979,253.85012 L 157.86764,252.67953 L 161.38055,240.71292 L 173.84702,240.35601 L 177.08999,249.44332 z" style="fill:#b9d400;fill-opacity:1;stroke:none;stroke-width:6.87900019;stroke-linecap:round;stroke-linejoin:round;stroke-miterlimit:4;stroke-dasharray:none;stroke-opacity:1"/>
        <path sodipodi:nodetypes="ccccccz" id="path5410" d="M 140.22237,156.33015 C 142.42949,154.38622 155.93376,155.09425 157.90539,156.32651 L 158.82002,157.13857 L 148.94421,164.75492 L 148.94421,164.75492 L 138.64883,157.71605 L 140.22237,156.33015 z" style="fill:#b9d400;fill-opacity:1;stroke:none;stroke-width:6.87900019;stroke-linecap:round;stroke-linejoin:round;stroke-miterlimit:4;stroke-dasharray:none;stroke-opacity:1"/>
        <path sodipodi:nodetypes="ccccccc" id="path5550" d="M 181.57524,174.41215 C 184.52048,179.23163 186.22849,190.76713 186.22849,190.76713 L 182.57711,193.58313 L 182.57711,193.58313 L 172.28173,186.54426 L 175.79464,174.57764 L 181.57524,174.41215 z" style="fill:#b9d400;fill-opacity:1;stroke:none;stroke-width:6.87900019;stroke-linecap:round;stroke-linejoin:round;stroke-miterlimit:4;stroke-dasharray:none;stroke-opacity:1"/>
        <path sodipodi:nodetypes="ccccc" id="path5358" d="M 156.47454,253.82577 L 139.70991,252.32459 L 141.03123,245.51762 L 153.4977,245.90833 L 156.47454,253.82577 z" style="fill:#b9d400;fill-opacity:1;stroke:none;stroke-width:6.87900019;stroke-linecap:round;stroke-linejoin:round;stroke-miterlimit:4;stroke-dasharray:none;stroke-opacity:1"/>
        <path sodipodi:nodetypes="cccccc" id="path5573" d="M 122.76272,168.56427 C 124.01221,163.92329 135.42391,157.27936 135.42391,157.27936 L 138.05456,164.65081 L 128.17875,172.26717 L 128.17875,172.26717 L 122.76272,168.56427 z" style="fill:#b9d400;fill-opacity:1;stroke:none;stroke-width:6.87900019;stroke-linecap:round;stroke-linejoin:round;stroke-miterlimit:4;stroke-dasharray:none;stroke-opacity:1"/>
        <path id="path5571" d="M 134.06196,153.463 L 135.42391,157.27936" style="fill:url(#radialGradient5637);fill-opacity:1;stroke:none;stroke-width:6.87900019;stroke-linecap:round;stroke-linejoin:round;stroke-miterlimit:4;stroke-dasharray:none;stroke-opacity:1"/>
        <path id="path5569" d="M 133.70667,152.90926 L 133.86276,152.90479 L 134.06196,153.463" style="fill:url(#radialGradient5635);fill-opacity:1;stroke:none;stroke-width:6.87900019;stroke-linecap:round;stroke-linejoin:round;stroke-miterlimit:4;stroke-dasharray:none;stroke-opacity:1"/>
      </g>
      <g transform="matrix(0.4608997,-0.5989181,0.5347404,0.5162152,-95.165806,425.83428)" style="display:inline" id="g9600">
        <path style="fill:#007700;fill-opacity:1;fill-rule:evenodd;stroke:#000000;stroke-width:6.87900019;stroke-linecap:butt;stroke-linejoin:round;stroke-miterlimit:4;stroke-dasharray:none;stroke-opacity:1" d="M 125.71315,159.24348 C 125.71315,159.24348 130.76187,155.2045 128.23751,141.06808 C 125.71315,126.93166 115.11084,114.81473 112.08161,110.77575 C 109.05237,106.73678 136.31546,118.34884 139.84957,128.95115 C 143.38367,139.55347 132.27649,98.153958 124.70341,90.076002 C 117.13033,81.998049 147.92751,98.658826 151.46162,113.80499 C 153.98598,96.134465 148.73765,90.392923 164.08342,76.444455 C 160.74893,106.41986 163.07367,121.88294 163.07367,121.88294 C 167.61752,122.38781 180.23933,100.67832 186.80267,90.580873 C 194.89973,78.123853 180.74421,131.4755 170.64677,139.55346 C 170.64677,139.55346 202.95858,136.01936 199.42447,136.01936 C 166.60778,155.70937 179.22958,163.28245 179.22958,163.28245 L 125.71315,159.24348 z" id="path9611" sodipodi:nodetypes="cscsccccccccc"/>
        <path style="fill:url(#pattern9151);fill-opacity:1;stroke:#000000;stroke-width:6.87900019;stroke-linecap:round;stroke-linejoin:round;stroke-miterlimit:4;stroke-dasharray:none;stroke-opacity:1;display:inline" d="M 148.706,258.14096 C 184.93829,261.98366 188.74361,245.93712 191.23546,223.61478 C 193.72731,201.29245 194.83863,155.08151 154.53168,150.49706 C 114.10292,145.89874 106.09261,185.45923 105.3185,212.91106 C 104.57973,239.10952 111.23308,254.16668 148.706,258.14096 z" id="path9613" sodipodi:nodetypes="czzzz"/>
        <path style="fill:url(#radialGradient9619);fill-opacity:1;stroke:none;stroke-width:6.87900019;stroke-linecap:round;stroke-linejoin:round;stroke-miterlimit:4;stroke-dasharray:none;stroke-opacity:1" d="M 134.06196,153.463 L 135.42391,157.27936" id="path9615"/>
        <path style="fill:url(#radialGradient9621);fill-opacity:1;stroke:none;stroke-width:6.87900019;stroke-linecap:round;stroke-linejoin:round;stroke-miterlimit:4;stroke-dasharray:none;stroke-opacity:1" d="M 133.70667,152.90926 L 133.86276,152.90479 L 134.06196,153.463" id="path9617"/>
      </g>
    </g>
  </g>
</svg>